<svg width="68" height="20" viewBox="0 0 68 20" fill="none" xmlns="http://www.w3.org/2000/svg">
<rect width="68" height="20" rx="4" fill="#FFEEE0"/>
<g clip-path="url(#clip0_9935_52661)">
<g clip-path="url(#clip1_9935_52661)">
<g clip-path="url(#clip2_9935_52661)">
<path d="M29.9685 14.9992L30.5335 13.2515C30.5396 13.237 30.5427 13.2214 30.5427 13.2057C30.5427 13.19 30.5396 13.1744 30.5335 13.1599C30.5258 13.1462 30.5141 13.1351 30.5 13.1281C30.486 13.121 30.4701 13.1184 30.4545 13.1204H25.0395L25.4204 11.9511H32.2948L31.5718 14.172C31.415 14.3932 31.2153 14.5805 30.9845 14.7228C30.7537 14.865 30.4966 14.9593 30.2285 15L29.9685 14.9992ZM25 11.3063L25.3682 10.1631H33.5701L33.5045 10.3867C33.4044 10.6383 33.2378 10.8581 33.0225 11.0224C32.8072 11.1868 32.5513 11.2896 32.2822 11.3198L25 11.3063ZM26.1852 9.45359L27.6312 5.01172H34.4922L34.1509 6.04989H28.6988C28.6738 6.0521 28.6502 6.06216 28.6313 6.07863C28.6124 6.0951 28.5993 6.11712 28.5937 6.14154L28.4491 6.58873C28.443 6.60324 28.4398 6.61882 28.4398 6.63456C28.4398 6.65029 28.443 6.66587 28.4491 6.68038C28.4568 6.69409 28.4685 6.70517 28.4825 6.71221C28.4966 6.71925 28.5125 6.72192 28.5281 6.71989H33.9304L33.6017 7.747H28.1496C28.1246 7.74921 28.101 7.75927 28.0821 7.77574C28.0633 7.7922 28.0501 7.81423 28.0445 7.83865L27.8999 8.28584C27.8938 8.30035 27.8907 8.31593 27.8907 8.33166C27.8907 8.3474 27.8938 8.36298 27.8999 8.37749C27.9076 8.39119 27.9193 8.40228 27.9334 8.40932C27.9474 8.41635 27.9633 8.41903 27.9789 8.41699H33.657L33.6041 8.58765C33.51 8.82919 33.3481 9.03835 33.1378 9.1899C32.9274 9.34145 32.6778 9.42891 32.4188 9.44174L26.1852 9.45359Z" fill="#FF3600"/>
<path d="M39.379 14.8311L39.5497 14.2923C39.5581 14.2723 39.5601 14.2501 39.5555 14.2289C39.5508 14.2077 39.5397 14.1884 39.5236 14.1738H39.4714L39.3924 14.1999C39.0092 14.5757 38.5054 14.8038 37.9701 14.8438H33.832L35.0283 11.1375H36.3716L36.2009 11.6502C36.1948 11.6647 36.1917 11.6803 36.1917 11.6961C36.1917 11.7118 36.1948 11.7274 36.2009 11.7419C36.2087 11.7556 36.2203 11.7667 36.2344 11.7737C36.2485 11.7808 36.2644 11.7834 36.28 11.7814H40.2885C40.3129 11.7786 40.3358 11.7682 40.354 11.7518C40.3723 11.7354 40.385 11.7137 40.3904 11.6897L40.5745 11.1248H41.9178L40.7215 14.8311H39.379ZM35.8825 12.8749C35.8576 12.8771 35.8339 12.8871 35.815 12.9036C35.7962 12.9201 35.783 12.9421 35.7774 12.9665L35.5933 13.5314C35.5872 13.5459 35.584 13.5615 35.584 13.5773C35.584 13.593 35.5872 13.6086 35.5933 13.6231C35.601 13.6368 35.6127 13.6479 35.6268 13.6549C35.6409 13.662 35.6567 13.6646 35.6723 13.6626H39.6792C39.7042 13.6604 39.7278 13.6503 39.7467 13.6339C39.7656 13.6174 39.7788 13.5954 39.7843 13.5709L39.9685 13.006C39.9745 12.9915 39.9777 12.9759 39.9777 12.9602C39.9777 12.9445 39.9745 12.9289 39.9685 12.9144C39.9607 12.9007 39.949 12.8896 39.935 12.8826C39.9209 12.8755 39.905 12.8728 39.8894 12.8749H35.8825ZM34.5945 10.5489L35.0173 9.24601H41.1553C41.1802 9.2438 41.2038 9.23374 41.2227 9.21727C41.2416 9.2008 41.2548 9.17878 41.2604 9.15436L42.075 6.64425C42.0811 6.62974 42.0842 6.61416 42.0842 6.59842C42.0842 6.58269 42.0811 6.56711 42.075 6.5526C42.0673 6.53889 42.0556 6.52781 42.0415 6.52077C42.0275 6.51374 42.0116 6.51106 41.996 6.51309H36.4886L36.9358 5.13281H43.8892L43.0453 7.72114C42.8361 8.2486 42.4795 8.70472 42.0181 9.03505C41.9998 9.04852 41.9853 9.06652 41.976 9.0873C41.9667 9.10808 41.963 9.13092 41.9652 9.15356C41.9678 9.1736 41.977 9.19221 41.9913 9.2065C42.0056 9.22079 42.0242 9.22996 42.0442 9.23257H43.201L43.0959 9.53518C42.9933 9.79627 42.8241 10.0259 42.605 10.2011C42.3859 10.3764 42.1247 10.4911 41.8475 10.5338L34.5945 10.5489Z" fill="#FF3600"/>
<path d="M49.4607 14.7916L51.1035 9.73508C51.1107 9.71795 51.1133 9.69919 51.111 9.68073C51.1086 9.66226 51.1014 9.64476 51.09 9.63L51.0244 9.60393H50.9984L50.4595 9.76195C50.4413 9.76848 50.4248 9.77896 50.4111 9.79262C50.3975 9.80627 50.387 9.82278 50.3804 9.84095L49.0372 13.9549C48.9001 14.1863 48.7113 14.3827 48.4854 14.5287C48.2596 14.6747 48.003 14.7663 47.7358 14.7964H47.5256L50.4879 5.65744C50.497 5.63188 50.497 5.604 50.4879 5.57843C50.4542 5.49677 50.438 5.40895 50.4403 5.32063C50.4426 5.23231 50.4634 5.14545 50.5014 5.06567C50.5133 5.04499 50.5306 5.02795 50.5515 5.0164C50.5724 5.00484 50.596 4.9992 50.6199 5.00009H51.9632L50.9067 8.23392C50.8994 8.25105 50.8969 8.26981 50.8992 8.28827C50.9016 8.30674 50.9088 8.32424 50.9201 8.339L50.9857 8.36507H51.0118L51.5507 8.20705C51.5689 8.20052 51.5854 8.19004 51.599 8.17638C51.6127 8.16273 51.6232 8.14622 51.6297 8.12805L52.4199 5.68352C52.429 5.65797 52.429 5.63006 52.4199 5.60451C52.3841 5.52378 52.3655 5.43644 52.3655 5.34812C52.3655 5.25981 52.3841 5.17247 52.4199 5.09174C52.4322 5.06761 52.4509 5.04742 52.4741 5.03345C52.4973 5.01948 52.524 5.0123 52.551 5.01273H53.8785L50.9857 13.9502C50.8487 14.1815 50.6598 14.3779 50.434 14.524C50.2082 14.67 49.9516 14.7616 49.6843 14.7916H49.4607ZM45.7019 14.3176L45.8599 13.8183C45.8684 13.7982 45.8704 13.7761 45.8657 13.7549C45.8611 13.7336 45.8499 13.7144 45.8338 13.6997H45.7809L45.7019 13.7258C45.2994 14.097 44.7771 14.3115 44.2298 14.3302H42.9023L45.8331 5.26161H47.1763L46.2566 8.11382C46.2505 8.12834 46.2474 8.14391 46.2474 8.15965C46.2474 8.17538 46.2505 8.19096 46.2566 8.20547C46.2643 8.21918 46.276 8.23026 46.2901 8.2373C46.3041 8.24434 46.32 8.24701 46.3356 8.24498H47.5999C47.6248 8.24277 47.6484 8.23271 47.6673 8.21624C47.6862 8.19978 47.6994 8.17775 47.705 8.15333L48.6532 5.24897H49.9964L47.0428 14.3184L45.7019 14.3176ZM45.8331 9.61262C45.8081 9.61483 45.7845 9.62489 45.7656 9.64136C45.7467 9.65782 45.7335 9.67985 45.728 9.70427L44.7292 12.8062C44.7231 12.8207 44.7199 12.8362 44.7199 12.852C44.7199 12.8677 44.7231 12.8833 44.7292 12.8978C44.737 12.9115 44.7486 12.9226 44.7627 12.9296C44.7768 12.9367 44.7926 12.9393 44.8082 12.9373H46.0725C46.0974 12.9351 46.121 12.925 46.1399 12.9086C46.1588 12.8921 46.172 12.8701 46.1776 12.8457L47.174 9.7414C47.1801 9.72689 47.1832 9.71131 47.1832 9.69558C47.1832 9.67984 47.1801 9.66426 47.174 9.64975C47.1662 9.63605 47.1546 9.62497 47.1405 9.61793C47.1264 9.61089 47.1106 9.60822 47.095 9.61025L45.8331 9.61262Z" fill="#FF3600"/>
<path d="M54.4549 14.8301C53.6134 14.8301 53.1014 14.6721 52.9173 14.3308C52.7332 13.9895 52.7987 13.792 52.9433 13.3582L53.0223 13.1085C53.3637 12.0443 54.1286 11.5837 55.5461 11.5837H58.6744C59.5286 11.5837 60.0279 11.7417 60.2121 12.083C60.3962 12.4243 60.3306 12.6218 60.186 13.0556L60.0943 13.3187C59.753 14.3829 58.9881 14.8436 57.5705 14.8436L54.4549 14.8301ZM55.2569 12.7404C54.718 12.7404 54.4549 12.7538 54.3238 13.1741C54.3017 13.2261 54.2904 13.282 54.2904 13.3384C54.2904 13.3949 54.3017 13.4508 54.3238 13.5028C54.4028 13.6339 54.5995 13.6608 55.0072 13.6608H57.8724C58.4373 13.6608 58.6744 13.6213 58.8056 13.2136C58.8287 13.1645 58.8419 13.1112 58.8442 13.057C58.8465 13.0027 58.8379 12.9485 58.819 12.8976C58.74 12.753 58.5432 12.7396 58.1355 12.7396L55.2569 12.7404ZM53.2199 10.9658L53.615 9.75698H56.94C56.9649 9.75477 56.9886 9.74471 57.0074 9.72825C57.0263 9.71178 57.0395 9.68975 57.0451 9.66533L57.3208 8.79624H58.6483L58.3852 9.62425C58.3791 9.63875 58.3759 9.65433 58.3759 9.67007C58.3759 9.68581 58.3791 9.7014 58.3852 9.7159C58.3929 9.7296 58.4046 9.74068 58.4187 9.74772C58.4328 9.75476 58.4486 9.75744 58.4642 9.7554H61.8161L61.7632 9.92606C61.6604 10.1951 61.4901 10.4331 61.2687 10.6173C61.0472 10.8015 60.7822 10.9256 60.4989 10.9777L53.2199 10.9658ZM61.579 9.03405C59.8699 9.00798 58.74 8.57422 58.3852 7.79836C58.3804 7.78424 58.3717 7.77178 58.3601 7.76241C58.3485 7.75305 58.3344 7.74715 58.3196 7.74542H58.3062L58.2406 7.77149C57.097 8.64472 55.6821 9.08676 54.2447 9.01983L54.6651 7.73199C55.4141 7.73552 56.1561 7.588 56.8467 7.29823C57.2123 7.11876 57.5372 6.86645 57.8017 6.5568C58.0661 6.24715 58.2644 5.88671 58.3844 5.49762L58.5424 5.01172H59.8699L59.7253 5.45891C59.6259 5.68279 59.5746 5.92503 59.5746 6.16999C59.5746 6.41494 59.6259 6.65718 59.7253 6.88106C60.0801 7.55106 61.0267 7.683 61.9994 7.73515L61.579 9.03405Z" fill="#FF3600"/>
</g>
<path d="M17.7398 16L17.1691 15.9549C16.9276 15.925 16.6878 15.8798 16.4507 15.8196H16.3973C15.9591 15.715 15.5193 15.5942 15.0827 15.4445L14.8041 15.3543L14.3523 15.2046L14.2598 15.1749L10.5076 13.8556L9.9728 13.6491L9.38853 13.4236L8.75 13.1531L9.48033 13.3181L10.5874 13.5589L11.6897 13.8141L16.0844 14.7591L16.3502 14.8042C16.6401 14.862 16.9338 14.8921 17.2281 14.8944H17.5203C18.4554 14.8661 19.3585 14.5032 20.0994 13.8581C20.8404 13.213 21.3811 12.3188 21.6436 11.3044C21.8433 10.4988 21.8579 9.64901 21.6859 8.83528C21.514 8.02155 21.1613 7.27079 20.6611 6.65394C20.2328 6.12896 19.7107 5.71277 19.1293 5.43293C18.548 5.1531 17.9206 5.01601 17.2888 5.03074H16.7301L16.4515 5.0605L15.3501 5.17232L14.9382 5.21741H14.7921L9.78921 5.82972L9.05889 5.91989L9.7094 5.72511L10.32 5.54475L10.8643 5.39506L11.9531 5.11009L13.0553 4.83956L15.2575 4.36071L15.39 4.33096L15.8146 4.25611L15.9742 4.22635L16.3733 4.1515L16.6535 4.10461L16.932 4.05952L17.4349 4H17.7541C18.089 3.99966 18.423 4.03987 18.7503 4.11994C19.5615 4.31708 20.32 4.72838 20.9636 5.32021C21.1277 5.47083 21.2839 5.63222 21.4313 5.80356C21.5771 5.96978 21.7146 6.14499 21.8432 6.3284C22.0957 6.69814 22.3094 7.0997 22.4801 7.52506C22.5673 7.73966 22.6427 7.96011 22.706 8.18517C22.8902 8.84947 22.9712 9.54479 22.9454 10.2403V10.2701C22.9245 10.7321 22.8579 11.1901 22.7467 11.6354C22.5155 12.5475 22.0971 13.3851 21.5255 14.0801C21.3832 14.2546 21.2324 14.4199 21.0737 14.5752C20.2835 15.3353 19.315 15.82 18.2857 15.9702L18.0072 16H17.7398Z" fill="#96999C"/>
<path d="M6.29688 7.30106L9.44326 6.55078C9.25599 6.82539 9.09543 7.12198 8.96436 7.43543L6.29688 7.30106Z" fill="#96999C"/>
<path d="M6.03125 11.3828L8.72667 11.5776C8.8093 11.8904 8.92058 12.1926 9.05871 12.4794L6.03125 11.3828Z" fill="#96999C"/>
<path d="M20.7951 15.163C20.1822 15.1703 19.5693 15.1402 18.9593 15.0728C18.2037 14.984 17.4542 14.8388 16.7156 14.6381C14.4501 13.9609 12.2284 13.1088 10.0661 12.0879H10.0413L4 8.96774L5.30102 8.60703C5.64582 8.51685 8.77944 7.63221 12.5101 6.25158L14.1966 5.66632C14.847 5.44043 15.5214 5.31485 16.2016 5.29299H16.2679C17.3788 5.29043 18.4763 5.56768 19.4805 6.10459C20.8751 6.98068 22.0388 8.25937 22.8528 9.81001L22.8927 9.88485C23.2695 10.5254 23.5855 11.2092 23.8353 11.9247C23.9445 12.2026 24.0006 12.5034 24 12.8074C23.9994 13.1114 23.9421 13.4119 23.8319 13.6893C23.7216 13.9666 23.5609 14.2147 23.3602 14.4171C23.1594 14.6196 22.9231 14.7721 22.6668 14.8645C22.2193 15.0663 21.7414 15.1683 21.2596 15.1648L20.7951 15.163Z" fill="white"/>
<path d="M10.2288 11.606C12.3793 12.6155 14.5885 13.4576 16.8408 14.1265C17.5577 14.3204 18.285 14.4608 19.0182 14.5467C19.7334 14.6183 20.4514 14.6484 21.1693 14.6369H21.2619C21.6787 14.6453 22.0932 14.5639 22.4831 14.397C22.6823 14.326 22.8659 14.2082 23.0218 14.0512C23.1777 13.8942 23.3025 13.7017 23.3878 13.4863C23.4731 13.2709 23.517 13.0375 23.5166 12.8016C23.5163 12.5656 23.4717 12.3324 23.3858 12.1173C23.1484 11.4369 22.8457 10.7879 22.4831 10.1821L22.4432 10.1072C21.6848 8.63149 20.5885 7.41381 19.2696 6.58216C18.3158 6.07099 17.2723 5.8093 16.2167 5.81655C15.5768 5.84078 14.9427 5.96211 14.3314 6.17726L12.6552 6.74719C8.68513 8.23242 5.40625 9.11707 5.40625 9.11707L10.2288 11.606ZM7.62676 9.53189L17.6111 10.8223H17.6214C17.6373 10.8238 17.6532 10.8199 17.6671 10.811C17.681 10.8022 17.6922 10.7889 17.6993 10.7728C17.7065 10.7567 17.7092 10.7385 17.7071 10.7207C17.705 10.7028 17.6982 10.6861 17.6877 10.6726C17.6342 10.5978 16.4106 8.66257 14.9396 8.66257L8.57977 8.87269L14.1558 7.01231C14.6203 6.86262 15.0848 6.72735 15.444 6.63717C15.6983 6.58656 15.9561 6.56151 16.2143 6.56233C16.6375 6.56115 17.0599 6.60645 17.4754 6.69759C16.9047 6.72735 16.7051 6.83286 16.5862 6.9528C16.5378 6.99915 16.4985 7.05651 16.471 7.12115C16.4435 7.18578 16.4284 7.25625 16.4266 7.32794C16.413 7.83835 18.3917 9.8926 18.4044 9.92326C18.7405 10.3284 19.1671 10.6237 19.6392 10.7781C20.2738 10.8964 20.9217 10.8912 21.5548 10.7628L21.9539 10.688L22.2732 11.2732L21.5165 11.303C20.4789 11.3932 19.8699 11.6926 19.6576 12.2327C19.4452 12.7729 19.6177 13.2247 20.0822 13.8559L19.0446 13.7955C18.3585 13.7342 17.6787 13.6038 17.0132 13.4059C14.7588 12.7975 12.558 11.959 10.4379 10.9008L7.62676 9.53189Z" fill="#FF3600"/>
</g>
</g>
<defs>
<clipPath id="clip0_9935_52661">
<rect width="58" height="12" fill="white" transform="translate(5 4)"/>
</clipPath>
<clipPath id="clip1_9935_52661">
<rect width="58" height="12" fill="white" transform="translate(5 4)"/>
</clipPath>
<clipPath id="clip2_9935_52661">
<rect width="38" height="10" fill="white" transform="translate(24 5)"/>
</clipPath>
</defs>
</svg>
